<svg width="441" height="106" viewBox="0 0 441 106" fill="none" xmlns="http://www.w3.org/2000/svg">
<rect y="3" width="441" height="103" fill="white"/>
<path d="M13.7774 25.8H32.7854V77.928H64.8494V93H13.7774V25.8Z" fill="black"/>
<path d="M107.608 94.344C100.504 94.344 94.104 92.84 88.408 89.832C82.776 86.824 78.328 82.664 75.064 77.352C71.864 72.04 70.264 66.056 70.264 59.4C70.264 52.744 71.864 46.76 75.064 41.448C78.328 36.136 82.776 31.976 88.408 28.968C94.104 25.96 100.504 24.456 107.608 24.456C114.712 24.456 121.08 25.96 126.712 28.968C132.408 31.976 136.856 36.136 140.056 41.448C143.32 46.76 144.952 52.744 144.952 59.4C144.952 66.056 143.32 72.04 140.056 77.352C136.856 82.664 132.408 86.824 126.712 89.832C121.08 92.84 114.712 94.344 107.608 94.344ZM107.608 78.6C111 78.6 114.072 77.8 116.824 76.2C119.576 74.6 121.752 72.36 123.352 69.48C124.952 66.536 125.752 63.176 125.752 59.4C125.752 55.624 124.952 52.296 123.352 49.416C121.752 46.472 119.576 44.2 116.824 42.6C114.072 41 111 40.2 107.608 40.2C104.216 40.2 101.144 41 98.392 42.6C95.64 44.2 93.464 46.472 91.864 49.416C90.264 52.296 89.464 55.624 89.464 59.4C89.464 63.176 90.264 66.536 91.864 69.48C93.464 72.36 95.64 74.6 98.392 76.2C101.144 77.8 104.216 78.6 107.608 78.6ZM199.932 57.96H216.732V85.8C212.892 88.552 208.476 90.664 203.484 92.136C198.492 93.608 193.5 94.344 188.508 94.344C181.468 94.344 175.132 92.872 169.5 89.928C163.868 86.92 159.452 82.76 156.252 77.448C153.052 72.136 151.452 66.12 151.452 59.4C151.452 52.68 153.052 46.664 156.252 41.352C159.452 36.04 163.9 31.912 169.596 28.968C175.292 25.96 181.724 24.456 188.892 24.456C195.164 24.456 200.796 25.512 205.788 27.624C210.78 29.736 214.94 32.776 218.268 36.744L206.172 47.688C201.628 42.696 196.188 40.2 189.852 40.2C184.092 40.2 179.452 41.96 175.932 45.48C172.412 48.936 170.652 53.576 170.652 59.4C170.652 63.112 171.452 66.44 173.052 69.384C174.652 72.264 176.892 74.536 179.772 76.2C182.652 77.8 185.948 78.6 189.66 78.6C193.308 78.6 196.732 77.864 199.932 76.392V57.96ZM273.807 57.96H290.607V85.8C286.767 88.552 282.351 90.664 277.359 92.136C272.367 93.608 267.375 94.344 262.383 94.344C255.343 94.344 249.007 92.872 243.375 89.928C237.743 86.92 233.327 82.76 230.127 77.448C226.927 72.136 225.327 66.12 225.327 59.4C225.327 52.68 226.927 46.664 230.127 41.352C233.327 36.04 237.775 31.912 243.471 28.968C249.167 25.96 255.599 24.456 262.767 24.456C269.039 24.456 274.671 25.512 279.663 27.624C284.655 29.736 288.815 32.776 292.143 36.744L280.047 47.688C275.503 42.696 270.063 40.2 263.727 40.2C257.967 40.2 253.327 41.96 249.807 45.48C246.287 48.936 244.527 53.576 244.527 59.4C244.527 63.112 245.327 66.44 246.927 69.384C248.527 72.264 250.767 74.536 253.647 76.2C256.527 77.8 259.823 78.6 263.535 78.6C267.183 78.6 270.607 77.864 273.807 76.392V57.96ZM356.61 78.312V93H302.658V25.8H355.362V40.488H321.474V51.816H351.33V66.024H321.474V78.312H356.61ZM396.534 75.144H386.166V93H367.158V25.8H397.878C403.958 25.8 409.238 26.824 413.718 28.872C418.198 30.856 421.654 33.736 424.086 37.512C426.518 41.224 427.734 45.608 427.734 50.664C427.734 55.528 426.582 59.784 424.278 63.432C422.038 67.016 418.806 69.832 414.582 71.88L429.078 93H408.726L396.534 75.144ZM408.534 50.664C408.534 47.528 407.542 45.096 405.558 43.368C403.574 41.64 400.63 40.776 396.726 40.776H386.166V60.456H396.726C400.63 60.456 403.574 59.624 405.558 57.96C407.542 56.232 408.534 53.8 408.534 50.664Z" fill="black"/>
<rect x="29.3633" y="14.4585" width="13.7087" height="34" transform="rotate(59.7261 29.3633 14.4585)" fill="white"/>
<path fill-rule="evenodd" clip-rule="evenodd" d="M32.0574 19.4607L23.0178 24.7303L14.0574 30V9L23.0178 14.2697L32.0574 19.4607Z" fill="#5EE045"/>
</svg>
