<svg width="479" height="54" viewBox="0 0 479 54" fill="none" xmlns="http://www.w3.org/2000/svg">
<rect width="479" height="54" fill="white"/>
<path d="M9.06445 31.1406H7.94531V40.9375H9.06445V41.8281H6.85547V30.25H9.06445V31.1406ZM15.4863 40H9.89648V39.2207L12.8496 35.9395C13.2871 35.4434 13.5879 35.041 13.752 34.7324C13.9199 34.4199 14.0039 34.0977 14.0039 33.7656C14.0039 33.3203 13.8691 32.9551 13.5996 32.6699C13.3301 32.3848 12.9707 32.2422 12.5215 32.2422C11.9824 32.2422 11.5625 32.3965 11.2617 32.7051C10.9648 33.0098 10.8164 33.4355 10.8164 33.9824H9.73242C9.73242 33.1973 9.98438 32.5625 10.4883 32.0781C10.9961 31.5938 11.6738 31.3516 12.5215 31.3516C13.3145 31.3516 13.9414 31.5605 14.4023 31.9785C14.8633 32.3926 15.0938 32.9453 15.0938 33.6367C15.0938 34.4766 14.5586 35.4766 13.4883 36.6367L11.2031 39.1152H15.4863V40ZM21.9844 36.3613C21.9844 37.6309 21.7676 38.5742 21.334 39.1914C20.9004 39.8086 20.2227 40.1172 19.3008 40.1172C18.3906 40.1172 17.7168 39.8164 17.2793 39.2148C16.8418 38.6094 16.6152 37.707 16.5996 36.5078V35.0605C16.5996 33.8066 16.8164 32.875 17.25 32.2656C17.6836 31.6562 18.3633 31.3516 19.2891 31.3516C20.207 31.3516 20.8828 31.6465 21.3164 32.2363C21.75 32.8223 21.9727 33.7285 21.9844 34.9551V36.3613ZM20.9004 34.8789C20.9004 33.9609 20.7715 33.293 20.5137 32.875C20.2559 32.4531 19.8477 32.2422 19.2891 32.2422C18.7344 32.2422 18.3301 32.4512 18.0762 32.8691C17.8223 33.2871 17.6914 33.9297 17.6836 34.7969V36.5312C17.6836 37.4531 17.8164 38.1348 18.082 38.5762C18.3516 39.0137 18.7578 39.2324 19.3008 39.2324C19.8359 39.2324 20.2324 39.0254 20.4902 38.6113C20.752 38.1973 20.8887 37.5449 20.9004 36.6543V34.8789ZM28.9629 40H23.373V39.2207L26.3262 35.9395C26.7637 35.4434 27.0645 35.041 27.2285 34.7324C27.3965 34.4199 27.4805 34.0977 27.4805 33.7656C27.4805 33.3203 27.3457 32.9551 27.0762 32.6699C26.8066 32.3848 26.4473 32.2422 25.998 32.2422C25.459 32.2422 25.0391 32.3965 24.7383 32.7051C24.4414 33.0098 24.293 33.4355 24.293 33.9824H23.209C23.209 33.1973 23.4609 32.5625 23.9648 32.0781C24.4727 31.5938 25.1504 31.3516 25.998 31.3516C26.791 31.3516 27.418 31.5605 27.8789 31.9785C28.3398 32.3926 28.5703 32.9453 28.5703 33.6367C28.5703 34.4766 28.0352 35.4766 26.9648 36.6367L24.6797 39.1152H28.9629V40ZM33.6738 40H32.584V32.7754L30.3984 33.5781V32.5938L33.5039 31.4277H33.6738V40ZM39.2168 36.8184H36.3574V35.9336H39.2168V36.8184ZM43.7285 40H42.6387V32.7754L40.4531 33.5781V32.5938L43.5586 31.4277H43.7285V40ZM50.4668 40H49.377V32.7754L47.1914 33.5781V32.5938L50.2969 31.4277H50.4668V40ZM56.0098 36.8184H53.1504V35.9336H56.0098V36.8184ZM62.5488 40H56.959V39.2207L59.9121 35.9395C60.3496 35.4434 60.6504 35.041 60.8145 34.7324C60.9824 34.4199 61.0664 34.0977 61.0664 33.7656C61.0664 33.3203 60.9316 32.9551 60.6621 32.6699C60.3926 32.3848 60.0332 32.2422 59.584 32.2422C59.0449 32.2422 58.625 32.3965 58.3242 32.7051C58.0273 33.0098 57.8789 33.4355 57.8789 33.9824H56.7949C56.7949 33.1973 57.0469 32.5625 57.5508 32.0781C58.0586 31.5938 58.7363 31.3516 59.584 31.3516C60.377 31.3516 61.0039 31.5605 61.4648 31.9785C61.9258 32.3926 62.1562 32.9453 62.1562 33.6367C62.1562 34.4766 61.6211 35.4766 60.5508 36.6367L58.2656 39.1152H62.5488V40ZM68.2734 37.1348H69.457V38.0195H68.2734V40H67.1836V38.0195H63.2988V37.3809L67.1191 31.4688H68.2734V37.1348ZM64.5293 37.1348H67.1836V32.9512L67.0547 33.1855L64.5293 37.1348ZM78.7617 36.3613C78.7617 37.6309 78.5449 38.5742 78.1113 39.1914C77.6777 39.8086 77 40.1172 76.0781 40.1172C75.168 40.1172 74.4941 39.8164 74.0566 39.2148C73.6191 38.6094 73.3926 37.707 73.377 36.5078V35.0605C73.377 33.8066 73.5938 32.875 74.0273 32.2656C74.4609 31.6562 75.1406 31.3516 76.0664 31.3516C76.9844 31.3516 77.6602 31.6465 78.0938 32.2363C78.5273 32.8223 78.75 33.7285 78.7617 34.9551V36.3613ZM77.6777 34.8789C77.6777 33.9609 77.5488 33.293 77.291 32.875C77.0332 32.4531 76.625 32.2422 76.0664 32.2422C75.5117 32.2422 75.1074 32.4512 74.8535 32.8691C74.5996 33.2871 74.4688 33.9297 74.4609 34.7969V36.5312C74.4609 37.4531 74.5938 38.1348 74.8594 38.5762C75.1289 39.0137 75.5352 39.2324 76.0781 39.2324C76.6133 39.2324 77.0098 39.0254 77.2676 38.6113C77.5293 38.1973 77.666 37.5449 77.6777 36.6543V34.8789ZM83.7129 40H82.623V32.7754L80.4375 33.5781V32.5938L83.543 31.4277H83.7129V40ZM86.9648 39.4316C86.9648 39.2441 87.0195 39.0879 87.1289 38.9629C87.2422 38.8379 87.4102 38.7754 87.6328 38.7754C87.8555 38.7754 88.0234 38.8379 88.1367 38.9629C88.2539 39.0879 88.3125 39.2441 88.3125 39.4316C88.3125 39.6113 88.2539 39.7617 88.1367 39.8828C88.0234 40.0039 87.8555 40.0645 87.6328 40.0645C87.4102 40.0645 87.2422 40.0039 87.1289 39.8828C87.0195 39.7617 86.9648 39.6113 86.9648 39.4316ZM86.9707 34.2578C86.9707 34.0703 87.0254 33.9141 87.1348 33.7891C87.248 33.6641 87.416 33.6016 87.6387 33.6016C87.8613 33.6016 88.0293 33.6641 88.1426 33.7891C88.2598 33.9141 88.3184 34.0703 88.3184 34.2578C88.3184 34.4375 88.2598 34.5879 88.1426 34.709C88.0293 34.8301 87.8613 34.8906 87.6387 34.8906C87.416 34.8906 87.248 34.8301 87.1348 34.709C87.0254 34.5879 86.9707 34.4375 86.9707 34.2578ZM95.3848 40H89.7949V39.2207L92.748 35.9395C93.1855 35.4434 93.4863 35.041 93.6504 34.7324C93.8184 34.4199 93.9023 34.0977 93.9023 33.7656C93.9023 33.3203 93.7676 32.9551 93.498 32.6699C93.2285 32.3848 92.8691 32.2422 92.4199 32.2422C91.8809 32.2422 91.4609 32.3965 91.1602 32.7051C90.8633 33.0098 90.7148 33.4355 90.7148 33.9824H89.6309C89.6309 33.1973 89.8828 32.5625 90.3867 32.0781C90.8945 31.5938 91.5723 31.3516 92.4199 31.3516C93.2129 31.3516 93.8398 31.5605 94.3008 31.9785C94.7617 32.3926 94.9922 32.9453 94.9922 33.6367C94.9922 34.4766 94.457 35.4766 93.3867 36.6367L91.1016 39.1152H95.3848V40ZM101.109 37.1348H102.293V38.0195H101.109V40H100.02V38.0195H96.1348V37.3809L99.9551 31.4688H101.109V37.1348ZM97.3652 37.1348H100.02V32.9512L99.8906 33.1855L97.3652 37.1348ZM103.348 39.4316C103.348 39.2441 103.402 39.0879 103.512 38.9629C103.625 38.8379 103.793 38.7754 104.016 38.7754C104.238 38.7754 104.406 38.8379 104.52 38.9629C104.637 39.0879 104.695 39.2441 104.695 39.4316C104.695 39.6113 104.637 39.7617 104.52 39.8828C104.406 40.0039 104.238 40.0645 104.016 40.0645C103.793 40.0645 103.625 40.0039 103.512 39.8828C103.402 39.7617 103.348 39.6113 103.348 39.4316ZM103.354 34.2578C103.354 34.0703 103.408 33.9141 103.518 33.7891C103.631 33.6641 103.799 33.6016 104.021 33.6016C104.244 33.6016 104.412 33.6641 104.525 33.7891C104.643 33.9141 104.701 34.0703 104.701 34.2578C104.701 34.4375 104.643 34.5879 104.525 34.709C104.412 34.8301 104.244 34.8906 104.021 34.8906C103.799 34.8906 103.631 34.8301 103.518 34.709C103.408 34.5879 103.354 34.4375 103.354 34.2578ZM107.754 35.207H108.568C109.08 35.1992 109.482 35.0645 109.775 34.8027C110.068 34.541 110.215 34.1875 110.215 33.7422C110.215 32.7422 109.717 32.2422 108.721 32.2422C108.252 32.2422 107.877 32.377 107.596 32.6465C107.318 32.9121 107.18 33.2656 107.18 33.707H106.096C106.096 33.0312 106.342 32.4707 106.834 32.0254C107.33 31.5762 107.959 31.3516 108.721 31.3516C109.525 31.3516 110.156 31.5645 110.613 31.9902C111.07 32.416 111.299 33.0078 111.299 33.7656C111.299 34.1367 111.178 34.4961 110.936 34.8438C110.697 35.1914 110.371 35.4512 109.957 35.623C110.426 35.7715 110.787 36.0176 111.041 36.3613C111.299 36.7051 111.428 37.125 111.428 37.6211C111.428 38.3867 111.178 38.9941 110.678 39.4434C110.178 39.8926 109.527 40.1172 108.727 40.1172C107.926 40.1172 107.273 39.9004 106.77 39.4668C106.27 39.0332 106.02 38.4609 106.02 37.75H107.109C107.109 38.1992 107.256 38.5586 107.549 38.8281C107.842 39.0977 108.234 39.2324 108.727 39.2324C109.25 39.2324 109.65 39.0957 109.928 38.8223C110.205 38.5488 110.344 38.1562 110.344 37.6445C110.344 37.1484 110.191 36.7676 109.887 36.502C109.582 36.2363 109.143 36.0996 108.568 36.0918H107.754V35.207ZM118.266 36.3613C118.266 37.6309 118.049 38.5742 117.615 39.1914C117.182 39.8086 116.504 40.1172 115.582 40.1172C114.672 40.1172 113.998 39.8164 113.561 39.2148C113.123 38.6094 112.896 37.707 112.881 36.5078V35.0605C112.881 33.8066 113.098 32.875 113.531 32.2656C113.965 31.6562 114.645 31.3516 115.57 31.3516C116.488 31.3516 117.164 31.6465 117.598 32.2363C118.031 32.8223 118.254 33.7285 118.266 34.9551V36.3613ZM117.182 34.8789C117.182 33.9609 117.053 33.293 116.795 32.875C116.537 32.4531 116.129 32.2422 115.57 32.2422C115.016 32.2422 114.611 32.4512 114.357 32.8691C114.104 33.2871 113.973 33.9297 113.965 34.7969V36.5312C113.965 37.4531 114.098 38.1348 114.363 38.5762C114.633 39.0137 115.039 39.2324 115.582 39.2324C116.117 39.2324 116.514 39.0254 116.771 38.6113C117.033 38.1973 117.17 37.5449 117.182 36.6543V34.8789ZM118.998 30.25H121.213V41.8281H118.998V40.9375H120.129V31.1406H118.998V30.25ZM125.197 31.1406H124.078V40.9375H125.197V41.8281H122.988V30.25H125.197V31.1406ZM126.105 39.4316C126.105 39.2441 126.16 39.0879 126.27 38.9629C126.383 38.8379 126.551 38.7754 126.773 38.7754C126.996 38.7754 127.164 38.8379 127.277 38.9629C127.395 39.0879 127.453 39.2441 127.453 39.4316C127.453 39.6113 127.395 39.7617 127.277 39.8828C127.164 40.0039 126.996 40.0645 126.773 40.0645C126.551 40.0645 126.383 40.0039 126.27 39.8828C126.16 39.7617 126.105 39.6113 126.105 39.4316ZM126.111 34.2578C126.111 34.0703 126.166 33.9141 126.275 33.7891C126.389 33.6641 126.557 33.6016 126.779 33.6016C127.002 33.6016 127.17 33.6641 127.283 33.7891C127.4 33.9141 127.459 34.0703 127.459 34.2578C127.459 34.4375 127.4 34.5879 127.283 34.709C127.17 34.8301 127.002 34.8906 126.779 34.8906C126.557 34.8906 126.389 34.8301 126.275 34.709C126.166 34.5879 126.111 34.4375 126.111 34.2578ZM130.225 40H129.141V33.6602H130.225V40ZM129.053 31.9785C129.053 31.8027 129.105 31.6543 129.211 31.5332C129.32 31.4121 129.48 31.3516 129.691 31.3516C129.902 31.3516 130.062 31.4121 130.172 31.5332C130.281 31.6543 130.336 31.8027 130.336 31.9785C130.336 32.1543 130.281 32.3008 130.172 32.418C130.062 32.5352 129.902 32.5938 129.691 32.5938C129.48 32.5938 129.32 32.5352 129.211 32.418C129.105 32.3008 129.053 32.1543 129.053 31.9785ZM132.99 33.6602L133.025 34.457C133.51 33.8477 134.143 33.543 134.924 33.543C136.264 33.543 136.939 34.2988 136.951 35.8105V40H135.867V35.8047C135.863 35.3477 135.758 35.0098 135.551 34.791C135.348 34.5723 135.029 34.4629 134.596 34.4629C134.244 34.4629 133.936 34.5566 133.67 34.7441C133.404 34.9316 133.197 35.1777 133.049 35.4824V40H131.965V33.6602H132.99ZM139.119 40V34.498H138.117V33.6602H139.119V33.0098C139.119 32.3301 139.301 31.8047 139.664 31.4336C140.027 31.0625 140.541 30.877 141.205 30.877C141.455 30.877 141.703 30.9102 141.949 30.9766L141.891 31.8555C141.707 31.8203 141.512 31.8027 141.305 31.8027C140.953 31.8027 140.682 31.9062 140.49 32.1133C140.299 32.3164 140.203 32.6094 140.203 32.9922V33.6602H141.557V34.498H140.203V40H139.119ZM142.471 36.7715C142.471 36.1504 142.592 35.5918 142.834 35.0957C143.08 34.5996 143.42 34.2168 143.854 33.9473C144.291 33.6777 144.789 33.543 145.348 33.543C146.211 33.543 146.908 33.8418 147.439 34.4395C147.975 35.0371 148.242 35.832 148.242 36.8242V36.9004C148.242 37.5176 148.123 38.0723 147.885 38.5645C147.65 39.0527 147.312 39.4336 146.871 39.707C146.434 39.9805 145.93 40.1172 145.359 40.1172C144.5 40.1172 143.803 39.8184 143.268 39.2207C142.736 38.623 142.471 37.832 142.471 36.8477V36.7715ZM143.561 36.9004C143.561 37.6035 143.723 38.168 144.047 38.5938C144.375 39.0195 144.812 39.2324 145.359 39.2324C145.91 39.2324 146.348 39.0176 146.672 38.5879C146.996 38.1543 147.158 37.5488 147.158 36.7715C147.158 36.0762 146.992 35.5137 146.66 35.084C146.332 34.6504 145.895 34.4336 145.348 34.4336C144.812 34.4336 144.381 34.6465 144.053 35.0723C143.725 35.498 143.561 36.1074 143.561 36.9004ZM148.834 30.25H151.049V41.8281H148.834V40.9375H149.965V31.1406H148.834V30.25ZM155.033 31.1406H153.914V40.9375H155.033V41.8281H152.824V30.25H155.033V31.1406ZM161.332 36.9004C161.332 37.8652 161.111 38.6426 160.67 39.2324C160.229 39.8223 159.631 40.1172 158.877 40.1172C158.107 40.1172 157.502 39.873 157.061 39.3848V42.4375H155.977V33.6602H156.967L157.02 34.3633C157.461 33.8164 158.074 33.543 158.859 33.543C159.621 33.543 160.223 33.8301 160.664 34.4043C161.109 34.9785 161.332 35.7773 161.332 36.8008V36.9004ZM160.248 36.7773C160.248 36.0625 160.096 35.498 159.791 35.084C159.486 34.6699 159.068 34.4629 158.537 34.4629C157.881 34.4629 157.389 34.7539 157.061 35.3359V38.3652C157.385 38.9434 157.881 39.2324 158.549 39.2324C159.068 39.2324 159.48 39.0273 159.785 38.6172C160.094 38.2031 160.248 37.5898 160.248 36.7773ZM163.893 40H162.809V33.6602H163.893V40ZM162.721 31.9785C162.721 31.8027 162.773 31.6543 162.879 31.5332C162.988 31.4121 163.148 31.3516 163.359 31.3516C163.57 31.3516 163.73 31.4121 163.84 31.5332C163.949 31.6543 164.004 31.8027 164.004 31.9785C164.004 32.1543 163.949 32.3008 163.84 32.418C163.73 32.5352 163.57 32.5938 163.359 32.5938C163.148 32.5938 162.988 32.5352 162.879 32.418C162.773 32.3008 162.721 32.1543 162.721 31.9785ZM165.369 36.7773C165.369 35.8047 165.6 35.0234 166.061 34.4336C166.521 33.8398 167.125 33.543 167.871 33.543C168.613 33.543 169.201 33.7969 169.635 34.3047V31H170.719V40H169.723L169.67 39.3203C169.236 39.8516 168.633 40.1172 167.859 40.1172C167.125 40.1172 166.525 39.8164 166.061 39.2148C165.6 38.6133 165.369 37.8281 165.369 36.8594V36.7773ZM166.453 36.9004C166.453 37.6191 166.602 38.1816 166.898 38.5879C167.195 38.9941 167.605 39.1973 168.129 39.1973C168.816 39.1973 169.318 38.8887 169.635 38.2715V35.3594C169.311 34.7617 168.812 34.4629 168.141 34.4629C167.609 34.4629 167.195 34.668 166.898 35.0781C166.602 35.4883 166.453 36.0957 166.453 36.9004ZM172.371 39.4316C172.371 39.2441 172.426 39.0879 172.535 38.9629C172.648 38.8379 172.816 38.7754 173.039 38.7754C173.262 38.7754 173.43 38.8379 173.543 38.9629C173.66 39.0879 173.719 39.2441 173.719 39.4316C173.719 39.6113 173.66 39.7617 173.543 39.8828C173.43 40.0039 173.262 40.0645 173.039 40.0645C172.816 40.0645 172.648 40.0039 172.535 39.8828C172.426 39.7617 172.371 39.6113 172.371 39.4316ZM172.377 34.2578C172.377 34.0703 172.432 33.9141 172.541 33.7891C172.654 33.6641 172.822 33.6016 173.045 33.6016C173.268 33.6016 173.436 33.6641 173.549 33.7891C173.666 33.9141 173.725 34.0703 173.725 34.2578C173.725 34.4375 173.666 34.5879 173.549 34.709C173.436 34.8301 173.268 34.8906 173.045 34.8906C172.822 34.8906 172.654 34.8301 172.541 34.709C172.432 34.5879 172.377 34.4375 172.377 34.2578ZM180.791 40H175.201V39.2207L178.154 35.9395C178.592 35.4434 178.893 35.041 179.057 34.7324C179.225 34.4199 179.309 34.0977 179.309 33.7656C179.309 33.3203 179.174 32.9551 178.904 32.6699C178.635 32.3848 178.275 32.2422 177.826 32.2422C177.287 32.2422 176.867 32.3965 176.566 32.7051C176.27 33.0098 176.121 33.4355 176.121 33.9824H175.037C175.037 33.1973 175.289 32.5625 175.793 32.0781C176.301 31.5938 176.979 31.3516 177.826 31.3516C178.619 31.3516 179.246 31.5605 179.707 31.9785C180.168 32.3926 180.398 32.9453 180.398 33.6367C180.398 34.4766 179.863 35.4766 178.793 36.6367L176.508 39.1152H180.791V40ZM186.193 31.4629V32.3828H185.994C185.15 32.3984 184.479 32.6484 183.979 33.1328C183.479 33.6172 183.189 34.2988 183.111 35.1777C183.561 34.6621 184.174 34.4043 184.951 34.4043C185.693 34.4043 186.285 34.666 186.727 35.1895C187.172 35.7129 187.395 36.3887 187.395 37.2168C187.395 38.0957 187.154 38.7988 186.674 39.3262C186.197 39.8535 185.557 40.1172 184.752 40.1172C183.936 40.1172 183.273 39.8047 182.766 39.1797C182.258 38.5508 182.004 37.7422 182.004 36.7539V36.3379C182.004 34.7676 182.338 33.5684 183.006 32.7402C183.678 31.9082 184.676 31.4824 186 31.4629H186.193ZM184.77 35.3066C184.398 35.3066 184.057 35.418 183.744 35.6406C183.432 35.8633 183.215 36.1426 183.094 36.4785V36.877C183.094 37.5801 183.252 38.1465 183.568 38.5762C183.885 39.0059 184.279 39.2207 184.752 39.2207C185.24 39.2207 185.623 39.041 185.9 38.6816C186.182 38.3223 186.322 37.8516 186.322 37.2695C186.322 36.6836 186.18 36.2109 185.895 35.8516C185.613 35.4883 185.238 35.3066 184.77 35.3066ZM192.832 36.25C192.605 36.5195 192.334 36.7363 192.018 36.9004C191.705 37.0645 191.361 37.1465 190.986 37.1465C190.494 37.1465 190.064 37.0254 189.697 36.7832C189.334 36.541 189.053 36.2012 188.854 35.7637C188.654 35.3223 188.555 34.8359 188.555 34.3047C188.555 33.7344 188.662 33.2207 188.877 32.7637C189.096 32.3066 189.404 31.957 189.803 31.7148C190.201 31.4727 190.666 31.3516 191.197 31.3516C192.041 31.3516 192.705 31.668 193.189 32.3008C193.678 32.9297 193.922 33.7891 193.922 34.8789V35.1953C193.922 36.8555 193.594 38.0684 192.938 38.834C192.281 39.5957 191.291 39.9863 189.967 40.0059H189.756V39.0918H189.984C190.879 39.0762 191.566 38.8438 192.047 38.3945C192.527 37.9414 192.789 37.2266 192.832 36.25ZM191.162 36.25C191.525 36.25 191.859 36.1387 192.164 35.916C192.473 35.6934 192.697 35.418 192.838 35.0898V34.6562C192.838 33.9453 192.684 33.3672 192.375 32.9219C192.066 32.4766 191.676 32.2539 191.203 32.2539C190.727 32.2539 190.344 32.4375 190.055 32.8047C189.766 33.168 189.621 33.6484 189.621 34.2461C189.621 34.8281 189.76 35.3086 190.037 35.6875C190.318 36.0625 190.693 36.25 191.162 36.25ZM199.67 31.4629V32.3828H199.471C198.627 32.3984 197.955 32.6484 197.455 33.1328C196.955 33.6172 196.666 34.2988 196.588 35.1777C197.037 34.6621 197.65 34.4043 198.428 34.4043C199.17 34.4043 199.762 34.666 200.203 35.1895C200.648 35.7129 200.871 36.3887 200.871 37.2168C200.871 38.0957 200.631 38.7988 200.15 39.3262C199.674 39.8535 199.033 40.1172 198.229 40.1172C197.412 40.1172 196.75 39.8047 196.242 39.1797C195.734 38.5508 195.48 37.7422 195.48 36.7539V36.3379C195.48 34.7676 195.814 33.5684 196.482 32.7402C197.154 31.9082 198.152 31.4824 199.477 31.4629H199.67ZM198.246 35.3066C197.875 35.3066 197.533 35.418 197.221 35.6406C196.908 35.8633 196.691 36.1426 196.57 36.4785V36.877C196.57 37.5801 196.729 38.1465 197.045 38.5762C197.361 39.0059 197.756 39.2207 198.229 39.2207C198.717 39.2207 199.1 39.041 199.377 38.6816C199.658 38.3223 199.799 37.8516 199.799 37.2695C199.799 36.6836 199.656 36.2109 199.371 35.8516C199.09 35.4883 198.715 35.3066 198.246 35.3066ZM201.498 30.25H203.713V41.8281H201.498V40.9375H202.629V31.1406H201.498V30.25ZM207.697 31.1406H206.578V40.9375H207.697V41.8281H205.488V30.25H207.697V31.1406ZM208.857 40.7324H207.926L211.488 31.4688H212.414L208.857 40.7324ZM215.678 38.5293L217.248 33.6602H218.355L216.082 40H215.256L212.959 33.6602H214.066L215.678 38.5293ZM223.219 40C223.156 39.875 223.105 39.6523 223.066 39.332C222.562 39.8555 221.961 40.1172 221.262 40.1172C220.637 40.1172 220.123 39.9414 219.721 39.5898C219.322 39.2344 219.123 38.7852 219.123 38.2422C219.123 37.582 219.373 37.0703 219.873 36.707C220.377 36.3398 221.084 36.1562 221.994 36.1562H223.049V35.6582C223.049 35.2793 222.936 34.9785 222.709 34.7559C222.482 34.5293 222.148 34.416 221.707 34.416C221.32 34.416 220.996 34.5137 220.734 34.709C220.473 34.9043 220.342 35.1406 220.342 35.418H219.252C219.252 35.1016 219.363 34.7969 219.586 34.5039C219.812 34.207 220.117 33.9727 220.5 33.8008C220.887 33.6289 221.311 33.543 221.771 33.543C222.502 33.543 223.074 33.7266 223.488 34.0938C223.902 34.457 224.117 34.959 224.133 35.5996V38.5176C224.133 39.0996 224.207 39.5625 224.355 39.9062V40H223.219ZM221.42 39.1738C221.76 39.1738 222.082 39.0859 222.387 38.9102C222.691 38.7344 222.912 38.5059 223.049 38.2246V36.9238H222.199C220.871 36.9238 220.207 37.3125 220.207 38.0898C220.207 38.4297 220.32 38.6953 220.547 38.8867C220.773 39.0781 221.064 39.1738 221.42 39.1738ZM228.896 34.6328C228.732 34.6055 228.555 34.5918 228.363 34.5918C227.652 34.5918 227.17 34.8945 226.916 35.5V40H225.832V33.6602H226.887L226.904 34.3926C227.26 33.8262 227.764 33.543 228.416 33.543C228.627 33.543 228.787 33.5703 228.896 33.625V34.6328ZM230.115 40.7324H229.184L232.746 31.4688H233.672L230.115 40.7324ZM240.457 38.5059L241.676 33.6602H242.76L240.914 40H240.035L238.494 35.1953L236.994 40H236.115L234.275 33.6602H235.354L236.602 38.4062L238.078 33.6602H238.951L240.457 38.5059ZM249.48 38.5059L250.699 33.6602H251.783L249.938 40H249.059L247.518 35.1953L246.018 40H245.139L243.299 33.6602H244.377L245.625 38.4062L247.102 33.6602H247.975L249.48 38.5059ZM258.504 38.5059L259.723 33.6602H260.807L258.961 40H258.082L256.541 35.1953L255.041 40H254.162L252.322 33.6602H253.4L254.648 38.4062L256.125 33.6602H256.998L258.504 38.5059ZM262.131 40.7324H261.199L264.762 31.4688H265.688L262.131 40.7324ZM267.943 34.4277C268.424 33.8379 269.049 33.543 269.818 33.543C271.158 33.543 271.834 34.2988 271.846 35.8105V40H270.762V35.8047C270.758 35.3477 270.652 35.0098 270.445 34.791C270.242 34.5723 269.924 34.4629 269.49 34.4629C269.139 34.4629 268.83 34.5566 268.564 34.7441C268.299 34.9316 268.092 35.1777 267.943 35.4824V40H266.859V31H267.943V34.4277ZM274.939 32.125V33.6602H276.123V34.498H274.939V38.4297C274.939 38.6836 274.992 38.875 275.098 39.0039C275.203 39.1289 275.383 39.1914 275.637 39.1914C275.762 39.1914 275.934 39.168 276.152 39.1211V40C275.867 40.0781 275.59 40.1172 275.32 40.1172C274.836 40.1172 274.471 39.9707 274.225 39.6777C273.979 39.3848 273.855 38.9688 273.855 38.4297V34.498H272.701V33.6602H273.855V32.125H274.939ZM278.414 33.6602L278.443 34.3633C278.908 33.8164 279.535 33.543 280.324 33.543C281.211 33.543 281.814 33.8828 282.135 34.5625C282.346 34.2578 282.619 34.0117 282.955 33.8242C283.295 33.6367 283.695 33.543 284.156 33.543C285.547 33.543 286.254 34.2793 286.277 35.752V40H285.193V35.8164C285.193 35.3633 285.09 35.0254 284.883 34.8027C284.676 34.5762 284.328 34.4629 283.84 34.4629C283.438 34.4629 283.104 34.584 282.838 34.8262C282.572 35.0645 282.418 35.3867 282.375 35.793V40H281.285V35.8457C281.285 34.9238 280.834 34.4629 279.932 34.4629C279.221 34.4629 278.734 34.7656 278.473 35.3711V40H277.389V33.6602H278.414ZM289.096 40H288.012V31H289.096V40ZM291.053 40.7324H290.121L293.684 31.4688H294.609L291.053 40.7324ZM296.959 40H295.875V31H296.959V40ZM298.412 36.7715C298.412 36.1504 298.533 35.5918 298.775 35.0957C299.021 34.5996 299.361 34.2168 299.795 33.9473C300.232 33.6777 300.73 33.543 301.289 33.543C302.152 33.543 302.85 33.8418 303.381 34.4395C303.916 35.0371 304.184 35.832 304.184 36.8242V36.9004C304.184 37.5176 304.064 38.0723 303.826 38.5645C303.592 39.0527 303.254 39.4336 302.812 39.707C302.375 39.9805 301.871 40.1172 301.301 40.1172C300.441 40.1172 299.744 39.8184 299.209 39.2207C298.678 38.623 298.412 37.832 298.412 36.8477V36.7715ZM299.502 36.9004C299.502 37.6035 299.664 38.168 299.988 38.5938C300.316 39.0195 300.754 39.2324 301.301 39.2324C301.852 39.2324 302.289 39.0176 302.613 38.5879C302.938 38.1543 303.1 37.5488 303.1 36.7715C303.1 36.0762 302.934 35.5137 302.602 35.084C302.273 34.6504 301.836 34.4336 301.289 34.4336C300.754 34.4336 300.322 34.6465 299.994 35.0723C299.666 35.498 299.502 36.1074 299.502 36.9004ZM305.285 36.7773C305.285 35.7891 305.514 35.0039 305.971 34.4219C306.428 33.8359 307.033 33.543 307.787 33.543C308.561 33.543 309.164 33.8164 309.598 34.3633L309.65 33.6602H310.641V39.8477C310.641 40.668 310.396 41.3145 309.908 41.7871C309.424 42.2598 308.771 42.4961 307.951 42.4961C307.494 42.4961 307.047 42.3984 306.609 42.2031C306.172 42.0078 305.838 41.7402 305.607 41.4004L306.17 40.75C306.635 41.3242 307.203 41.6113 307.875 41.6113C308.402 41.6113 308.812 41.4629 309.105 41.166C309.402 40.8691 309.551 40.4512 309.551 39.9121V39.3672C309.117 39.8672 308.525 40.1172 307.775 40.1172C307.033 40.1172 306.432 39.8184 305.971 39.2207C305.514 38.623 305.285 37.8086 305.285 36.7773ZM306.375 36.9004C306.375 37.6152 306.521 38.1777 306.814 38.5879C307.107 38.9941 307.518 39.1973 308.045 39.1973C308.729 39.1973 309.23 38.8867 309.551 38.2656V35.3711C309.219 34.7656 308.721 34.4629 308.057 34.4629C307.529 34.4629 307.117 34.668 306.82 35.0781C306.523 35.4883 306.375 36.0957 306.375 36.9004ZM312.023 36.7773C312.023 35.7891 312.252 35.0039 312.709 34.4219C313.166 33.8359 313.771 33.543 314.525 33.543C315.299 33.543 315.902 33.8164 316.336 34.3633L316.389 33.6602H317.379V39.8477C317.379 40.668 317.135 41.3145 316.646 41.7871C316.162 42.2598 315.51 42.4961 314.689 42.4961C314.232 42.4961 313.785 42.3984 313.348 42.2031C312.91 42.0078 312.576 41.7402 312.346 41.4004L312.908 40.75C313.373 41.3242 313.941 41.6113 314.613 41.6113C315.141 41.6113 315.551 41.4629 315.844 41.166C316.141 40.8691 316.289 40.4512 316.289 39.9121V39.3672C315.855 39.8672 315.264 40.1172 314.514 40.1172C313.771 40.1172 313.17 39.8184 312.709 39.2207C312.252 38.623 312.023 37.8086 312.023 36.7773ZM313.113 36.9004C313.113 37.6152 313.26 38.1777 313.553 38.5879C313.846 38.9941 314.256 39.1973 314.783 39.1973C315.467 39.1973 315.969 38.8867 316.289 38.2656V35.3711C315.957 34.7656 315.459 34.4629 314.795 34.4629C314.268 34.4629 313.855 34.668 313.559 35.0781C313.262 35.4883 313.113 36.0957 313.113 36.9004ZM321.65 40.1172C320.791 40.1172 320.092 39.8359 319.553 39.2734C319.014 38.707 318.744 37.9512 318.744 37.0059V36.8066C318.744 36.1777 318.863 35.6172 319.102 35.125C319.344 34.6289 319.68 34.2422 320.109 33.9648C320.543 33.6836 321.012 33.543 321.516 33.543C322.34 33.543 322.98 33.8145 323.438 34.3574C323.895 34.9004 324.123 35.6777 324.123 36.6895V37.1406H319.828C319.844 37.7656 320.025 38.2715 320.373 38.6582C320.725 39.041 321.17 39.2324 321.709 39.2324C322.092 39.2324 322.416 39.1543 322.682 38.998C322.947 38.8418 323.18 38.6348 323.379 38.377L324.041 38.8926C323.51 39.709 322.713 40.1172 321.65 40.1172ZM321.516 34.4336C321.078 34.4336 320.711 34.5938 320.414 34.9141C320.117 35.2305 319.934 35.6758 319.863 36.25H323.039V36.168C323.008 35.6172 322.859 35.1914 322.594 34.8906C322.328 34.5859 321.969 34.4336 321.516 34.4336ZM328.447 34.6328C328.283 34.6055 328.105 34.5918 327.914 34.5918C327.203 34.5918 326.721 34.8945 326.467 35.5V40H325.383V33.6602H326.438L326.455 34.3926C326.811 33.8262 327.314 33.543 327.967 33.543C328.178 33.543 328.338 33.5703 328.447 33.625V34.6328ZM328.746 39.4316C328.746 39.2441 328.801 39.0879 328.91 38.9629C329.023 38.8379 329.191 38.7754 329.414 38.7754C329.637 38.7754 329.805 38.8379 329.918 38.9629C330.035 39.0879 330.094 39.2441 330.094 39.4316C330.094 39.6113 330.035 39.7617 329.918 39.8828C329.805 40.0039 329.637 40.0645 329.414 40.0645C329.191 40.0645 329.023 40.0039 328.91 39.8828C328.801 39.7617 328.746 39.6113 328.746 39.4316ZM337.242 36.9004C337.242 37.8652 337.021 38.6426 336.58 39.2324C336.139 39.8223 335.541 40.1172 334.787 40.1172C334.018 40.1172 333.412 39.873 332.971 39.3848V42.4375H331.887V33.6602H332.877L332.93 34.3633C333.371 33.8164 333.984 33.543 334.77 33.543C335.531 33.543 336.133 33.8301 336.574 34.4043C337.02 34.9785 337.242 35.7773 337.242 36.8008V36.9004ZM336.158 36.7773C336.158 36.0625 336.006 35.498 335.701 35.084C335.396 34.6699 334.979 34.4629 334.447 34.4629C333.791 34.4629 333.299 34.7539 332.971 35.3359V38.3652C333.295 38.9434 333.791 39.2324 334.459 39.2324C334.979 39.2324 335.391 39.0273 335.695 38.6172C336.004 38.2031 336.158 37.5898 336.158 36.7773ZM339.709 34.4277C340.189 33.8379 340.814 33.543 341.584 33.543C342.924 33.543 343.6 34.2988 343.611 35.8105V40H342.527V35.8047C342.523 35.3477 342.418 35.0098 342.211 34.791C342.008 34.5723 341.689 34.4629 341.256 34.4629C340.904 34.4629 340.596 34.5566 340.33 34.7441C340.064 34.9316 339.857 35.1777 339.709 35.4824V40H338.625V31H339.709V34.4277ZM350.59 36.9004C350.59 37.8652 350.369 38.6426 349.928 39.2324C349.486 39.8223 348.889 40.1172 348.135 40.1172C347.365 40.1172 346.76 39.873 346.318 39.3848V42.4375H345.234V33.6602H346.225L346.277 34.3633C346.719 33.8164 347.332 33.543 348.117 33.543C348.879 33.543 349.48 33.8301 349.922 34.4043C350.367 34.9785 350.59 35.7773 350.59 36.8008V36.9004ZM349.506 36.7773C349.506 36.0625 349.354 35.498 349.049 35.084C348.744 34.6699 348.326 34.4629 347.795 34.4629C347.139 34.4629 346.646 34.7539 346.318 35.3359V38.3652C346.643 38.9434 347.139 39.2324 347.807 39.2324C348.326 39.2324 348.738 39.0273 349.043 38.6172C349.352 38.2031 349.506 37.5898 349.506 36.7773ZM351.938 39.4316C351.938 39.2441 351.992 39.0879 352.102 38.9629C352.215 38.8379 352.383 38.7754 352.605 38.7754C352.828 38.7754 352.996 38.8379 353.109 38.9629C353.227 39.0879 353.285 39.2441 353.285 39.4316C353.285 39.6113 353.227 39.7617 353.109 39.8828C352.996 40.0039 352.828 40.0645 352.605 40.0645C352.383 40.0645 352.215 40.0039 352.102 39.8828C351.992 39.7617 351.938 39.6113 351.938 39.4316ZM351.943 34.2578C351.943 34.0703 351.998 33.9141 352.107 33.7891C352.221 33.6641 352.389 33.6016 352.611 33.6016C352.834 33.6016 353.002 33.6641 353.115 33.7891C353.232 33.9141 353.291 34.0703 353.291 34.2578C353.291 34.4375 353.232 34.5879 353.115 34.709C353.002 34.8301 352.834 34.8906 352.611 34.8906C352.389 34.8906 352.221 34.8301 352.107 34.709C351.998 34.5879 351.943 34.4375 351.943 34.2578ZM356.344 35.207H357.158C357.67 35.1992 358.072 35.0645 358.365 34.8027C358.658 34.541 358.805 34.1875 358.805 33.7422C358.805 32.7422 358.307 32.2422 357.311 32.2422C356.842 32.2422 356.467 32.377 356.186 32.6465C355.908 32.9121 355.77 33.2656 355.77 33.707H354.686C354.686 33.0312 354.932 32.4707 355.424 32.0254C355.92 31.5762 356.549 31.3516 357.311 31.3516C358.115 31.3516 358.746 31.5645 359.203 31.9902C359.66 32.416 359.889 33.0078 359.889 33.7656C359.889 34.1367 359.768 34.4961 359.525 34.8438C359.287 35.1914 358.961 35.4512 358.547 35.623C359.016 35.7715 359.377 36.0176 359.631 36.3613C359.889 36.7051 360.018 37.125 360.018 37.6211C360.018 38.3867 359.768 38.9941 359.268 39.4434C358.768 39.8926 358.117 40.1172 357.316 40.1172C356.516 40.1172 355.863 39.9004 355.359 39.4668C354.859 39.0332 354.609 38.4609 354.609 37.75H355.699C355.699 38.1992 355.846 38.5586 356.139 38.8281C356.432 39.0977 356.824 39.2324 357.316 39.2324C357.84 39.2324 358.24 39.0957 358.518 38.8223C358.795 38.5488 358.934 38.1562 358.934 37.6445C358.934 37.1484 358.781 36.7676 358.477 36.502C358.172 36.2363 357.732 36.0996 357.158 36.0918H356.344V35.207ZM363.082 35.207H363.896C364.408 35.1992 364.811 35.0645 365.104 34.8027C365.396 34.541 365.543 34.1875 365.543 33.7422C365.543 32.7422 365.045 32.2422 364.049 32.2422C363.58 32.2422 363.205 32.377 362.924 32.6465C362.646 32.9121 362.508 33.2656 362.508 33.707H361.424C361.424 33.0312 361.67 32.4707 362.162 32.0254C362.658 31.5762 363.287 31.3516 364.049 31.3516C364.854 31.3516 365.484 31.5645 365.941 31.9902C366.398 32.416 366.627 33.0078 366.627 33.7656C366.627 34.1367 366.506 34.4961 366.264 34.8438C366.025 35.1914 365.699 35.4512 365.285 35.623C365.754 35.7715 366.115 36.0176 366.369 36.3613C366.627 36.7051 366.756 37.125 366.756 37.6211C366.756 38.3867 366.506 38.9941 366.006 39.4434C365.506 39.8926 364.855 40.1172 364.055 40.1172C363.254 40.1172 362.602 39.9004 362.098 39.4668C361.598 39.0332 361.348 38.4609 361.348 37.75H362.438C362.438 38.1992 362.584 38.5586 362.877 38.8281C363.17 39.0977 363.562 39.2324 364.055 39.2324C364.578 39.2324 364.979 39.0957 365.256 38.8223C365.533 38.5488 365.672 38.1562 365.672 37.6445C365.672 37.1484 365.52 36.7676 365.215 36.502C364.91 36.2363 364.471 36.0996 363.896 36.0918H363.082V35.207ZM367.588 30.25H369.803V41.8281H367.588V40.9375H368.719V31.1406H367.588V30.25ZM377.062 39.2324C377.449 39.2324 377.787 39.1152 378.076 38.8809C378.365 38.6465 378.525 38.3535 378.557 38.002H379.582C379.562 38.3652 379.438 38.7109 379.207 39.0391C378.977 39.3672 378.668 39.6289 378.281 39.8242C377.898 40.0195 377.492 40.1172 377.062 40.1172C376.199 40.1172 375.512 39.8301 375 39.2559C374.492 38.6777 374.238 37.8887 374.238 36.8887V36.707C374.238 36.0898 374.352 35.541 374.578 35.0605C374.805 34.5801 375.129 34.207 375.551 33.9414C375.977 33.6758 376.479 33.543 377.057 33.543C377.768 33.543 378.357 33.7559 378.826 34.1816C379.299 34.6074 379.551 35.1602 379.582 35.8398H378.557C378.525 35.4297 378.369 35.0938 378.088 34.832C377.811 34.5664 377.467 34.4336 377.057 34.4336C376.506 34.4336 376.078 34.6328 375.773 35.0312C375.473 35.4258 375.322 35.998 375.322 36.748V36.9531C375.322 37.6836 375.473 38.2461 375.773 38.6406C376.074 39.0352 376.504 39.2324 377.062 39.2324ZM380.514 36.7715C380.514 36.1504 380.635 35.5918 380.877 35.0957C381.123 34.5996 381.463 34.2168 381.896 33.9473C382.334 33.6777 382.832 33.543 383.391 33.543C384.254 33.543 384.951 33.8418 385.482 34.4395C386.018 35.0371 386.285 35.832 386.285 36.8242V36.9004C386.285 37.5176 386.166 38.0723 385.928 38.5645C385.693 39.0527 385.355 39.4336 384.914 39.707C384.477 39.9805 383.973 40.1172 383.402 40.1172C382.543 40.1172 381.846 39.8184 381.311 39.2207C380.779 38.623 380.514 37.832 380.514 36.8477V36.7715ZM381.604 36.9004C381.604 37.6035 381.766 38.168 382.09 38.5938C382.418 39.0195 382.855 39.2324 383.402 39.2324C383.953 39.2324 384.391 39.0176 384.715 38.5879C385.039 38.1543 385.201 37.5488 385.201 36.7715C385.201 36.0762 385.035 35.5137 384.703 35.084C384.375 34.6504 383.938 34.4336 383.391 34.4336C382.855 34.4336 382.424 34.6465 382.096 35.0723C381.768 35.498 381.604 36.1074 381.604 36.9004ZM387.357 36.7715C387.357 36.1504 387.479 35.5918 387.721 35.0957C387.967 34.5996 388.307 34.2168 388.74 33.9473C389.178 33.6777 389.676 33.543 390.234 33.543C391.098 33.543 391.795 33.8418 392.326 34.4395C392.861 35.0371 393.129 35.832 393.129 36.8242V36.9004C393.129 37.5176 393.01 38.0723 392.771 38.5645C392.537 39.0527 392.199 39.4336 391.758 39.707C391.32 39.9805 390.816 40.1172 390.246 40.1172C389.387 40.1172 388.689 39.8184 388.154 39.2207C387.623 38.623 387.357 37.832 387.357 36.8477V36.7715ZM388.447 36.9004C388.447 37.6035 388.609 38.168 388.934 38.5938C389.262 39.0195 389.699 39.2324 390.246 39.2324C390.797 39.2324 391.234 39.0176 391.559 38.5879C391.883 38.1543 392.045 37.5488 392.045 36.7715C392.045 36.0762 391.879 35.5137 391.547 35.084C391.219 34.6504 390.781 34.4336 390.234 34.4336C389.699 34.4336 389.268 34.6465 388.939 35.0723C388.611 35.498 388.447 36.1074 388.447 36.9004ZM397.271 34.0234C398.068 34.0234 398.705 34.291 399.182 34.8262C399.662 35.3574 399.902 36.0586 399.902 36.9297V37.0293C399.902 37.627 399.787 38.1621 399.557 38.6348C399.326 39.1035 398.994 39.4688 398.561 39.7305C398.131 39.9883 397.635 40.1172 397.072 40.1172C396.221 40.1172 395.535 39.834 395.016 39.2676C394.496 38.6973 394.236 37.9336 394.236 36.9766V36.4492C394.236 35.1172 394.482 34.0586 394.975 33.2734C395.471 32.4883 396.201 32.0098 397.166 31.8379C397.713 31.7402 398.082 31.6211 398.273 31.4805C398.465 31.3398 398.561 31.1465 398.561 30.9004H399.451C399.451 31.3887 399.34 31.7695 399.117 32.043C398.898 32.3164 398.547 32.5098 398.062 32.623L397.254 32.8047C396.609 32.957 396.125 33.2148 395.801 33.5781C395.48 33.9375 395.271 34.418 395.174 35.0195C395.748 34.3555 396.447 34.0234 397.271 34.0234ZM397.061 34.9141C396.529 34.9141 396.107 35.0938 395.795 35.4531C395.482 35.8086 395.326 36.3027 395.326 36.9355V37.0293C395.326 37.709 395.482 38.248 395.795 38.6465C396.111 39.041 396.537 39.2383 397.072 39.2383C397.611 39.2383 398.037 39.0391 398.35 38.6406C398.662 38.2422 398.818 37.6602 398.818 36.8945C398.818 36.2969 398.66 35.8184 398.344 35.459C398.031 35.0957 397.604 34.9141 397.061 34.9141ZM402.135 33.6602V39.1152H404.455V33.6602H405.539V39.1152H407.854V33.6602H408.943V39.1152H409.834L409.729 41.8809H408.756V40H401.045V33.6602H402.135ZM413.643 40.1172C412.783 40.1172 412.084 39.8359 411.545 39.2734C411.006 38.707 410.736 37.9512 410.736 37.0059V36.8066C410.736 36.1777 410.855 35.6172 411.094 35.125C411.336 34.6289 411.672 34.2422 412.102 33.9648C412.535 33.6836 413.004 33.543 413.508 33.543C414.332 33.543 414.973 33.8145 415.43 34.3574C415.887 34.9004 416.115 35.6777 416.115 36.6895V37.1406H411.82C411.836 37.7656 412.018 38.2715 412.365 38.6582C412.717 39.041 413.162 39.2324 413.701 39.2324C414.084 39.2324 414.408 39.1543 414.674 38.998C414.939 38.8418 415.172 38.6348 415.371 38.377L416.033 38.8926C415.502 39.709 414.705 40.1172 413.643 40.1172ZM413.508 34.4336C413.07 34.4336 412.703 34.5938 412.406 34.9141C412.109 35.2305 411.926 35.6758 411.855 36.25H415.031V36.168C415 35.6172 414.852 35.1914 414.586 34.8906C414.32 34.5859 413.961 34.4336 413.508 34.4336ZM422.555 40H421.471V37.293H418.559V40H417.469V33.6602H418.559V36.4082H421.471V33.6602H422.555V40ZM428.402 33.6602H429.486V40H428.402V35.377L425.479 40H424.395V33.6602H425.479V38.2891L428.402 33.6602ZM433.857 40.1172C432.998 40.1172 432.299 39.8359 431.76 39.2734C431.221 38.707 430.951 37.9512 430.951 37.0059V36.8066C430.951 36.1777 431.07 35.6172 431.309 35.125C431.551 34.6289 431.887 34.2422 432.316 33.9648C432.75 33.6836 433.219 33.543 433.723 33.543C434.547 33.543 435.188 33.8145 435.645 34.3574C436.102 34.9004 436.33 35.6777 436.33 36.6895V37.1406H432.035C432.051 37.7656 432.232 38.2715 432.58 38.6582C432.932 39.041 433.377 39.2324 433.916 39.2324C434.299 39.2324 434.623 39.1543 434.889 38.998C435.154 38.8418 435.387 38.6348 435.586 38.377L436.248 38.8926C435.717 39.709 434.92 40.1172 433.857 40.1172ZM433.723 34.4336C433.285 34.4336 432.918 34.5938 432.621 34.9141C432.324 35.2305 432.141 35.6758 432.07 36.25H435.246V36.168C435.215 35.6172 435.066 35.1914 434.801 34.8906C434.535 34.5859 434.176 34.4336 433.723 34.4336ZM445.447 37.7734H441.873L441.07 40H439.91L443.168 31.4688H444.152L447.416 40H446.262L445.447 37.7734ZM442.213 36.8477H445.113L443.66 32.8574L442.213 36.8477ZM451.459 34.6328C451.295 34.6055 451.117 34.5918 450.926 34.5918C450.215 34.5918 449.732 34.8945 449.479 35.5V40H448.395V33.6602H449.449L449.467 34.3926C449.822 33.8262 450.326 33.543 450.979 33.543C451.189 33.543 451.35 33.5703 451.459 33.625V34.6328ZM455.525 34.6328C455.361 34.6055 455.184 34.5918 454.992 34.5918C454.281 34.5918 453.799 34.8945 453.545 35.5V40H452.461V33.6602H453.516L453.533 34.3926C453.889 33.8262 454.393 33.543 455.045 33.543C455.256 33.543 455.416 33.5703 455.525 33.625V34.6328ZM460.207 40C460.145 39.875 460.094 39.6523 460.055 39.332C459.551 39.8555 458.949 40.1172 458.25 40.1172C457.625 40.1172 457.111 39.9414 456.709 39.5898C456.311 39.2344 456.111 38.7852 456.111 38.2422C456.111 37.582 456.361 37.0703 456.861 36.707C457.365 36.3398 458.072 36.1562 458.982 36.1562H460.037V35.6582C460.037 35.2793 459.924 34.9785 459.697 34.7559C459.471 34.5293 459.137 34.416 458.695 34.416C458.309 34.416 457.984 34.5137 457.723 34.709C457.461 34.9043 457.33 35.1406 457.33 35.418H456.24C456.24 35.1016 456.352 34.7969 456.574 34.5039C456.801 34.207 457.105 33.9727 457.488 33.8008C457.875 33.6289 458.299 33.543 458.76 33.543C459.49 33.543 460.062 33.7266 460.477 34.0938C460.891 34.457 461.105 34.959 461.121 35.5996V38.5176C461.121 39.0996 461.195 39.5625 461.344 39.9062V40H460.207ZM458.408 39.1738C458.748 39.1738 459.07 39.0859 459.375 38.9102C459.68 38.7344 459.9 38.5059 460.037 38.2246V36.9238H459.188C457.859 36.9238 457.195 37.3125 457.195 38.0898C457.195 38.4297 457.309 38.6953 457.535 38.8867C457.762 39.0781 458.053 39.1738 458.408 39.1738ZM464.801 38.4121L466.277 33.6602H467.438L464.889 40.9785C464.494 42.0332 463.867 42.5605 463.008 42.5605L462.803 42.543L462.398 42.4668V41.5879L462.691 41.6113C463.059 41.6113 463.344 41.5371 463.547 41.3887C463.754 41.2402 463.924 40.9688 464.057 40.5742L464.297 39.9297L462.035 33.6602H463.219L464.801 38.4121Z" fill="black"/>
<rect x="6" y="43" width="115" height="3" fill="#2F7B0B"/>
<rect x="124" y="43" width="26" height="3" fill="#449C1B"/>
<rect x="124" y="43" width="26" height="3" fill="#449C1B"/>
<rect x="124" y="43" width="26" height="3" fill="#449C1B"/>
<rect x="153" y="43" width="51" height="3" fill="#449C1B"/>
<rect x="153" y="43" width="51" height="3" fill="#449C1B"/>
<rect x="153" y="43" width="51" height="3" fill="#6EBB49"/>
<rect x="207" y="43" width="63" height="3" fill="#449C1B"/>
<rect x="207" y="43" width="63" height="3" fill="#449C1B"/>
<rect x="207" y="43" width="63" height="3" fill="#82D959"/>
<rect x="207" y="43" width="161" height="3" fill="#449C1B"/>
<rect x="207" y="43" width="161" height="3" fill="#449C1B"/>
<rect x="207" y="43" width="161" height="3" fill="#82D959"/>
<rect x="375" y="43" width="60" height="3" fill="#449C1B"/>
<rect x="375" y="43" width="60" height="3" fill="#449C1B"/>
<rect x="375" y="43" width="60" height="3" fill="#B9F79C"/>
<rect x="440" y="43" width="27" height="3" fill="#449C1B"/>
<rect x="440" y="43" width="27" height="3" fill="#449C1B"/>
<rect x="440" y="43" width="27" height="3" fill="#DEF9D1"/>
<circle cx="63.5" cy="14.5" r="9.5" fill="#2F7B0B"/>
<path d="M64.2715 19H63.1816V11.7754L60.9961 12.5781V11.5938L64.1016 10.4277H64.2715V19Z" fill="black"/>
<circle cx="137.5" cy="14.5" r="9.5" fill="#449C1B"/>
<path d="M140.299 19H134.709V18.2207L137.662 14.9395C138.1 14.4434 138.4 14.041 138.564 13.7324C138.732 13.4199 138.816 13.0977 138.816 12.7656C138.816 12.3203 138.682 11.9551 138.412 11.6699C138.143 11.3848 137.783 11.2422 137.334 11.2422C136.795 11.2422 136.375 11.3965 136.074 11.7051C135.777 12.0098 135.629 12.4355 135.629 12.9824H134.545C134.545 12.1973 134.797 11.5625 135.301 11.0781C135.809 10.5938 136.486 10.3516 137.334 10.3516C138.127 10.3516 138.754 10.5605 139.215 10.9785C139.676 11.3926 139.906 11.9453 139.906 12.6367C139.906 13.4766 139.371 14.4766 138.301 15.6367L136.016 18.1152H140.299V19Z" fill="black"/>
<circle cx="178.5" cy="14.5" r="9.5" fill="#6EBB49"/>
<path d="M177.285 14.207H178.1C178.611 14.1992 179.014 14.0645 179.307 13.8027C179.6 13.541 179.746 13.1875 179.746 12.7422C179.746 11.7422 179.248 11.2422 178.252 11.2422C177.783 11.2422 177.408 11.377 177.127 11.6465C176.85 11.9121 176.711 12.2656 176.711 12.707H175.627C175.627 12.0312 175.873 11.4707 176.365 11.0254C176.861 10.5762 177.49 10.3516 178.252 10.3516C179.057 10.3516 179.688 10.5645 180.145 10.9902C180.602 11.416 180.83 12.0078 180.83 12.7656C180.83 13.1367 180.709 13.4961 180.467 13.8438C180.229 14.1914 179.902 14.4512 179.488 14.623C179.957 14.7715 180.318 15.0176 180.572 15.3613C180.83 15.7051 180.959 16.125 180.959 16.6211C180.959 17.3867 180.709 17.9941 180.209 18.4434C179.709 18.8926 179.059 19.1172 178.258 19.1172C177.457 19.1172 176.805 18.9004 176.301 18.4668C175.801 18.0332 175.551 17.4609 175.551 16.75H176.641C176.641 17.1992 176.787 17.5586 177.08 17.8281C177.373 18.0977 177.766 18.2324 178.258 18.2324C178.781 18.2324 179.182 18.0957 179.459 17.8223C179.736 17.5488 179.875 17.1562 179.875 16.6445C179.875 16.1484 179.723 15.7676 179.418 15.502C179.113 15.2363 178.674 15.0996 178.1 15.0918H177.285V14.207Z" fill="black"/>
<circle cx="287.5" cy="14.5" r="9.5" fill="#81D958"/>
<path d="M289.285 16.1348H290.469V17.0195H289.285V19H288.195V17.0195H284.311V16.3809L288.131 10.4688H289.285V16.1348ZM285.541 16.1348H288.195V11.9512L288.066 12.1855L285.541 16.1348Z" fill="black"/>
<circle cx="405.5" cy="14.5" r="9.5" fill="#B9F69C"/>
<path d="M403.207 14.7227L403.641 10.4688H408.012V11.4707H404.561L404.303 13.7969C404.721 13.5508 405.195 13.4277 405.727 13.4277C406.504 13.4277 407.121 13.6855 407.578 14.2012C408.035 14.7129 408.264 15.4062 408.264 16.2812C408.264 17.1602 408.025 17.8535 407.549 18.3613C407.076 18.8652 406.414 19.1172 405.562 19.1172C404.809 19.1172 404.193 18.9082 403.717 18.4902C403.24 18.0723 402.969 17.4941 402.902 16.7559H403.928C403.994 17.2441 404.168 17.6133 404.449 17.8633C404.73 18.1094 405.102 18.2324 405.562 18.2324C406.066 18.2324 406.461 18.0605 406.746 17.7168C407.035 17.373 407.18 16.8984 407.18 16.293C407.18 15.7227 407.023 15.2656 406.711 14.9219C406.402 14.5742 405.99 14.4004 405.475 14.4004C405.002 14.4004 404.631 14.5039 404.361 14.7109L404.074 14.9453L403.207 14.7227Z" fill="black"/>
<circle cx="453.5" cy="14.5" r="9.5" fill="#DEF9D1"/>
<path d="M454.963 10.4629V11.3828H454.764C453.92 11.3984 453.248 11.6484 452.748 12.1328C452.248 12.6172 451.959 13.2988 451.881 14.1777C452.33 13.6621 452.943 13.4043 453.721 13.4043C454.463 13.4043 455.055 13.666 455.496 14.1895C455.941 14.7129 456.164 15.3887 456.164 16.2168C456.164 17.0957 455.924 17.7988 455.443 18.3262C454.967 18.8535 454.326 19.1172 453.521 19.1172C452.705 19.1172 452.043 18.8047 451.535 18.1797C451.027 17.5508 450.773 16.7422 450.773 15.7539V15.3379C450.773 13.7676 451.107 12.5684 451.775 11.7402C452.447 10.9082 453.445 10.4824 454.77 10.4629H454.963ZM453.539 14.3066C453.168 14.3066 452.826 14.418 452.514 14.6406C452.201 14.8633 451.984 15.1426 451.863 15.4785V15.877C451.863 16.5801 452.021 17.1465 452.338 17.5762C452.654 18.0059 453.049 18.2207 453.521 18.2207C454.01 18.2207 454.393 18.041 454.67 17.6816C454.951 17.3223 455.092 16.8516 455.092 16.2695C455.092 15.6836 454.949 15.2109 454.664 14.8516C454.383 14.4883 454.008 14.3066 453.539 14.3066Z" fill="black"/>
</svg>
